<?xml version="1.0" encoding="utf-8"?>
<!-- Generator: Adobe Illustrator 22.1.0, SVG Export Plug-In . SVG Version: 6.00 Build 0)  -->
<svg version="1.1" id="Layer_1" xmlns="http://www.w3.org/2000/svg" xmlns:xlink="http://www.w3.org/1999/xlink" x="0px" y="0px"
	 viewBox="0 0 500 500" style="enable-background:new 0 0 500 500;" xml:space="preserve">
<style type="text/css">
	.st0{fill:none;stroke:#FFFFFF;stroke-width:4;stroke-linecap:round;stroke-linejoin:round;}
	.st1{fill:#FFFFFF;}
	.st2{fill:none;stroke:#FFFFFF;stroke-width:8;stroke-linecap:round;stroke-linejoin:round;}
</style>
<title>Artboard 1</title>
<polyline class="st0" points="425,91.5 425,425 320.8,425 "/>
<polyline class="st0" points="152.9,425 75,425 75,75 249,75 "/>
<path class="st1" d="M151.6,222.1h-27.7l-6.7,32h-14.8l15-71.6h14.7l-5.8,27.6H154l5.8-27.6h14.7l-14.9,71.6h-14.8L151.6,222.1z"/>
<path class="st1" d="M176.2,254.1l15.8-71.6h9l-15.8,71.6H176.2z"/>
<path class="st1" d="M249.1,238.3h-28.4l-8.6,15.8H197l40.5-71.6h16.4l11.6,71.6h-14L249.1,238.3z M247.3,226.4l-4.1-28.8
	l-17.3,28.8H247.3z"/>
<path class="st1" d="M289.5,254.1h-14.7l15-71.6h31.8c5.5,0,9.7,0.6,12.8,1.7c3.1,1.2,5.7,3.3,7.4,6.2c2,3.3,2.9,7.1,2.8,10.9
	c0,6.1-1.8,11.1-5.5,15.1c-3.6,4-9.2,6.4-16.5,7.4c2.1,2,3.9,4.2,5.3,6.7c3.3,5.6,7,13.5,11,23.7H323c-1.3-4-3.8-10.3-7.5-18.9
	c-2-4.6-4.1-7.7-6.5-9.3c-1.4-0.9-3.8-1.4-7.3-1.4h-6L289.5,254.1z M298,213.7h7.8c7.9,0,13.2-0.5,15.8-1.4c2.4-0.8,4.6-2.4,6.1-4.4
	c1.4-1.8,2.2-4.1,2.2-6.4c0.1-2.4-1.1-4.7-3.2-5.9c-1.3-0.8-4.1-1.2-8.5-1.2H302L298,213.7z"/>
<path class="st1" d="M376,254.1h-14.7l12.5-59.6h-21l2.5-12h56.4l-2.5,12h-20.7L376,254.1z"/>
<path class="st1" d="M91.9,285.6L99,267h2.7l7.6,18.6h-2.8l-2.2-5.6h-7.8l-2,5.6H91.9z M97.2,278h6.3l-1.9-5.1
	c-0.6-1.6-1-2.9-1.3-3.9c-0.2,1.2-0.6,2.4-1,3.5L97.2,278z"/>
<path class="st1" d="M128.4,279.1l2.5,0.6c-0.4,1.8-1.4,3.4-2.8,4.6c-1.4,1.1-3.1,1.6-4.9,1.6c-1.7,0.1-3.4-0.3-4.9-1.2
	c-1.3-0.9-2.3-2.1-2.9-3.5c-0.7-1.6-1-3.3-1-5c0-1.8,0.3-3.5,1.1-5.1c0.7-1.4,1.8-2.5,3.2-3.3c1.4-0.8,2.9-1.1,4.5-1.1
	c1.7-0.1,3.3,0.4,4.7,1.4c1.3,1,2.2,2.4,2.6,4l-2.4,0.6c-0.3-1.2-1-2.2-1.9-3c-0.9-0.6-2-1-3.1-0.9c-1.3,0-2.5,0.3-3.6,1
	c-0.9,0.7-1.6,1.7-2,2.8c-0.4,1.2-0.6,2.4-0.6,3.6c0,1.4,0.2,2.8,0.7,4.1c0.4,1.1,1.2,2,2.2,2.6s2,0.9,3.2,0.9
	c1.3,0,2.5-0.4,3.5-1.2C127.5,281.6,128.2,280.4,128.4,279.1z"/>
<path class="st1" d="M135.8,285.6L143,267h2.6l7.6,18.6h-2.8l-2.2-5.6h-7.8l-2,5.6H135.8z M141.2,278h6.3l-1.9-5.1
	c-0.6-1.6-1-2.9-1.3-3.9c-0.2,1.2-0.6,2.4-1,3.5L141.2,278z"/>
<path class="st1" d="M159.1,285.6V267h6.4c1.1,0,2.2,0.1,3.3,0.3c1,0.2,1.9,0.7,2.7,1.3c1,0.9,1.8,1.9,2.2,3.2
	c0.5,1.4,0.8,2.9,0.7,4.4c0,1.3-0.1,2.6-0.5,3.8c-0.3,1-0.7,1.9-1.3,2.7c-0.9,1.4-2.3,2.3-3.9,2.6c-1,0.2-2,0.3-3,0.3L159.1,285.6z
	 M161.5,283.4h4c1,0,1.9-0.1,2.9-0.3c0.6-0.2,1.2-0.5,1.7-1c0.6-0.7,1.1-1.5,1.4-2.4c0.3-1.2,0.5-2.4,0.5-3.6
	c0.1-1.6-0.2-3.1-0.9-4.5c-0.5-0.9-1.3-1.7-2.3-2.1c-1-0.3-2.1-0.4-3.2-0.4h-3.9L161.5,283.4z"/>
<path class="st1" d="M181.8,285.6V267h13.5v2.2h-11v5.7h10.3v2.2h-10.3v6.3h11.4v2.2L181.8,285.6z"/>
<path class="st1" d="M202.9,285.6V267h3.7l4.4,13.2c0.4,1.2,0.7,2.1,0.9,2.8c0.2-0.7,0.5-1.7,1-3l4.4-12.9h3.3v18.6h-2.4V270
	l-5.4,15.6h-2.2l-5.4-15.9v15.9H202.9z"/>
<path class="st1" d="M233.8,285.6v-7.9l-7.2-10.7h3l3.7,5.6c0.7,1,1.3,2.1,1.9,3.1c0.6-1,1.2-2.1,2-3.3l3.6-5.5h2.9l-7.4,10.7v7.9
	L233.8,285.6z"/>
<path class="st1" d="M259.2,280.3l2.2-0.3c-0.1,1,0.2,2.1,0.8,2.9c0.5,0.5,1.2,0.8,2,0.8c0.6,0,1.1-0.1,1.6-0.4
	c0.4-0.3,0.8-0.7,0.9-1.1c0.2-0.8,0.3-1.5,0.3-2.3V267h2.5v12.7c0.1,1.2-0.1,2.5-0.6,3.6c-0.3,0.9-1,1.6-1.8,2
	c-0.9,0.5-1.9,0.7-2.9,0.7c-1.4,0.1-2.8-0.4-3.8-1.4C259.5,283.4,259,281.9,259.2,280.3z"/>
<path class="st1" d="M277.8,285.6V267h2.5v18.6H277.8z"/>
<path class="st1" d="M300.7,267h2.5v10.8c0.1,1.5-0.2,3-0.6,4.5c-0.4,1.1-1.2,2.1-2.3,2.7c-1.3,0.7-2.8,1.1-4.4,1
	c-1.5,0.1-2.9-0.3-4.3-0.9c-1.1-0.6-1.9-1.5-2.4-2.6c-0.5-1.5-0.8-3.1-0.7-4.7V267h2.5v10.7c-0.1,1.2,0.1,2.4,0.5,3.6
	c0.3,0.8,0.8,1.4,1.5,1.8c0.8,0.4,1.8,0.6,2.7,0.6c1.4,0.1,2.8-0.3,3.9-1.2c0.8-0.8,1.1-2.4,1.1-4.7L300.7,267z"/>
<path class="st1" d="M321,280.3l2.2-0.3c-0.1,1,0.2,2.1,0.8,3c0.5,0.5,1.2,0.8,2,0.8c0.6,0,1.1-0.1,1.6-0.4c0.4-0.3,0.8-0.7,0.9-1.1
	c0.2-0.8,0.3-1.5,0.3-2.3v-13h2.5v12.7c0.1,1.2-0.1,2.5-0.6,3.6c-0.3,0.9-1,1.6-1.8,2c-0.9,0.5-1.9,0.7-2.9,0.7
	c-1.4,0.1-2.8-0.4-3.8-1.4C321.3,283.4,320.9,281.9,321,280.3z"/>
<path class="st1" d="M339.6,285.6V267h2.5v18.6H339.6z"/>
<path class="st1" d="M355,285.6v-16.4h-6.1V267h14.8v2.2h-6.2v16.4H355z"/>
<path class="st1" d="M369.2,279.6l2.3-0.2c0.1,0.8,0.3,1.6,0.8,2.3c0.5,0.7,1.1,1.2,1.9,1.5c0.9,0.4,1.9,0.6,2.9,0.5
	c0.8,0,1.7-0.1,2.5-0.4c0.6-0.2,1.2-0.6,1.6-1.1c0.3-0.5,0.5-1,0.5-1.6s-0.2-1.1-0.5-1.5c-0.4-0.5-1-0.9-1.7-1.1
	c-1.1-0.4-2.2-0.7-3.3-0.9c-1.2-0.3-2.4-0.6-3.6-1.2c-0.8-0.4-1.5-1-2-1.7c-0.4-0.7-0.7-1.5-0.6-2.3c0-0.9,0.3-1.9,0.8-2.6
	c0.6-0.8,1.4-1.5,2.3-1.9c1.1-0.4,2.2-0.6,3.4-0.6c1.2,0,2.5,0.2,3.6,0.7c1,0.4,1.8,1.1,2.4,2s0.9,1.9,0.9,2.9l-2.4,0.2
	c0-1-0.5-2-1.3-2.7c-0.9-0.7-2.1-1-3.3-0.9c-1.1-0.1-2.3,0.2-3.3,0.8c-0.6,0.5-1,1.2-1,2c0,0.6,0.3,1.2,0.7,1.6
	c1.1,0.7,2.4,1.1,3.7,1.3c1.4,0.3,2.8,0.7,4.1,1.2c1,0.4,1.8,1.1,2.4,1.9c0.5,0.8,0.8,1.7,0.8,2.6c0,1-0.3,2-0.9,2.8
	c-0.6,0.9-1.4,1.6-2.4,2c-1.1,0.5-2.4,0.8-3.6,0.7c-1.4,0-2.9-0.2-4.2-0.7c-1.1-0.5-2-1.2-2.7-2.2
	C369.6,282,369.3,280.8,369.2,279.6z"/>
<path class="st1" d="M403.5,267h2.5v10.8c0.1,1.5-0.2,3-0.6,4.5c-0.4,1.1-1.2,2.1-2.3,2.7c-1.3,0.7-2.8,1.1-4.4,1
	c-1.5,0.1-2.9-0.3-4.3-0.9c-1.1-0.6-1.9-1.5-2.4-2.6c-0.5-1.5-0.8-3.1-0.7-4.7V267h2.5v10.7c-0.1,1.2,0.1,2.4,0.5,3.6
	c0.3,0.8,0.8,1.4,1.5,1.8c0.8,0.4,1.7,0.6,2.7,0.6c1.4,0.1,2.8-0.3,3.9-1.2c0.8-0.8,1.1-2.4,1.1-4.7L403.5,267z"/>
<path class="st2" d="M310.5,450c-0.4-16.7-4.7-30.6-13.7-37c0,0-0.8-12.9,6.8-17.8s23.2-13.9,13.8-28.3s-39.3,1.7-48.6,22.8
	c0,0,1.4-17.5-1.3-23.2c0,0,13.3-6.2,13.3-14c0-5-3.5-12.5-13.1-17.2l6.2-13.5c1.5-3.2,0.1-7.1-3.1-8.6l0,0l0,0
	c-3.2-1.5-7.1-0.1-8.6,3.1l-7,15.2c-1.8-0.3-3.7-0.5-5.7-0.6v-15.2c0-3.6-2.9-6.5-6.5-6.5l0,0c-3.6,0-6.4,2.9-6.4,6.5v15.9
	c-2.1,0.4-4.2,1-6.2,1.8l-7.9-14.7c-1.7-3.1-5.6-4.3-8.7-2.6l0,0l0,0c-3.1,1.7-4.3,5.6-2.6,8.7l7.9,14.7
	c-11.1,8-18.3,19.9-19.6,28.3c0.3-5.5-0.1-18-9.4-18c-11.9,0-13,12.7-13,33.3c0,0-23.8,24.7-4.8,48.2c-6.7,5.6-12.9,11.8-18.4,18.5
	H50V50h204.8c-0.7,3.8-0.2,7.8,1.6,11.2c10.7,20.1,32-9.9,32-9.9s14.7,86.7,69,86.7c33.5,0,57.7-46.7,63.6-88h29v400H310.5z"/>
</svg>
